<?xml version="1.0" encoding="UTF-8" standalone="no"?>
<!-- Created with Inkscape (http://www.inkscape.org/) -->

<svg
   version="1.1"
   id="svg2"
   width="933.33282"
   height="317.62964"
   viewBox="0 0 933.33286 317.62962"
   sodipodi:docname="logo-concesionario.svg"
   xmlns:inkscape="http://www.inkscape.org/namespaces/inkscape"
   xmlns:sodipodi="http://sodipodi.sourceforge.net/DTD/sodipodi-0.dtd"
   xmlns="http://www.w3.org/2000/svg"
   xmlns:svg="http://www.w3.org/2000/svg">
  <defs
     id="defs6" />
  <sodipodi:namedview
     id="namedview4"
     pagecolor="#ffffff"
     bordercolor="#000000"
     borderopacity="0.25"
     inkscape:showpageshadow="2"
     inkscape:pageopacity="0.0"
     inkscape:pagecheckerboard="0"
     inkscape:deskcolor="#d1d1d1"
     showgrid="false" />
  <g
     id="g8"
     inkscape:groupmode="layer"
     inkscape:label="ink_ext_XXXXXX"
     transform="matrix(1.3333333,0,0,-1.3333333,-199.99978,692.14825)">
    <g
       id="g10"
       transform="scale(0.1)">
      <path
         d="m 8489.91,3283.99 c 0,0 80.82,529.79 -215.12,837.74 -258.15,268.61 -488.92,339.84 -958.84,360.85 -436.81,19.53 -639.23,1.41 -928.11,-0.04 -185.31,-0.93 -2268.03,-147.51 -3042.48,0 0,0 479.42,-221.27 1604.22,-212.05 933.8,7.65 1721.46,-3.76 1962.02,-7.85 44.04,-0.75 87.89,0.46 131.82,3.66 145.6,10.59 546.14,24.42 874.88,-106.45 409.8,-163.14 534.74,-599.27 571.61,-875.86"
         style="fill:#ffffff;fill-opacity:1;fill-rule:nonzero;stroke:none"
         id="path12" />
      <path
         d="m 8054.67,3376.18 c 0,-313.31 -253.99,-567.29 -567.3,-567.29 -313.3,0 -567.29,253.98 -567.29,567.29 0,313.31 253.99,567.3 567.29,567.3 313.31,0 567.3,-253.99 567.3,-567.3"
         style="fill:#ffffff;fill-opacity:1;fill-rule:nonzero;stroke:none"
         id="path14" />
      <path
         d="m 3411.57,3376.18 c 0,-313.31 -253.99,-567.29 -567.3,-567.29 -313.3,0 -567.29,253.98 -567.29,567.29 0,313.31 253.99,567.3 567.29,567.3 313.31,0 567.3,-253.99 567.3,-567.3"
         style="fill:#ffffff;fill-opacity:1;fill-rule:nonzero;stroke:none"
         id="path16" />
      <path
         d="m 7383.56,4104.53 c 0,0 -663.82,184.4 -875.86,-654.59 H 3828.67 c 0,0 -181.45,549.71 -612.39,590.06 0,0 8.99,-9 23.14,-25.71 213.31,-132.38 355.43,-368.6 355.43,-638.11 0,-31.23 -2.13,-61.96 -5.84,-92.19 h 3176.83 c 0,0 -71.05,748.14 617.72,820.54"
         style="fill:#ffffff;fill-opacity:1;fill-rule:nonzero;stroke:none"
         id="path18" />
      <path
         d="m 4507.03,4971.18 c 906.44,-42.14 1650.32,-368.79 1650.32,-368.79 0,0 -156.74,156.74 -654.6,350.35 -497.85,193.61 -1063.33,347.27 -1880.8,138.3 -773.03,-197.62 -626.59,-560.48 -1984.93,-495.12 -44.55,2.14 -73.69,-45.77 -51.25,-84.32 57.81,-99.3 116.02,-267.88 -1.36,-443.94 -184.39,-276.59 -9.22,-691.48 -9.22,-691.48 h 518.51 c 0,403.64 318.65,732.74 718.1,749.76 -126.4,21.58 -322.49,10.11 -609.67,-113.6 h -460.99 c 0,0 147.52,193.61 101.42,350.34 0,0 525.52,165.96 1032.6,-9.22 507.08,-175.17 1631.87,-285.8 2369.44,-212.05 0,0 -1770.16,82.98 -2304.9,460.98 0,0 510.29,417.93 1567.33,368.79"
         style="fill:#ffffff;fill-opacity:1;fill-rule:nonzero;stroke:none"
         id="path20" />
    </g>
  </g>
</svg>
